<?xml version="1.0" encoding="utf-8"?>
<svg version="1.1" id="Kinto" x="0px" y="0px" viewBox="0 0 170 170" style="enable-background:new 0 0 550 140;" xmlns="http://www.w3.org/2000/svg">
  <style type="text/css">
	.st0{fill:#999999;}
	.st1{fill:#333333;}
	.st2{fill:url(#SVGID_1_);}
	.st3{fill:url(#SVGID_2_);}
	.st4{fill:url(#SVGID_3_);}
	.st5{fill:url(#SVGID_4_);}
	.st6{fill:url(#SVGID_5_);}
	.st7{fill:url(#SVGID_6_);}
	.st8{fill:url(#SVGID_7_);}
	.st9{fill:url(#SVGID_8_);}
	.st10{fill:url(#SVGID_9_);}
	.st11{opacity:0.47;fill:#E35702;}
	.st12{fill:url(#SVGID_10_);}
	.st13{fill:url(#SVGID_11_);}
	.st14{fill:url(#SVGID_12_);}
	.st15{fill:#EB7808;}
	.st16{fill:#E35702;}
</style>
  <g transform="matrix(1, 0, 0, 1, -44, -15)">
    <g transform="matrix(1, 0, 0, 1, -20.9, 36.585583)">
      <g id="Cloud">
        <linearGradient id="SVGID_2_" gradientUnits="userSpaceOnUse" x1="4900.6426" y1="14.9202" x2="4900.6426" y2="99.9902" gradientTransform="matrix(-1 0 0 1 5066.3213 0)">
          <stop offset="0" style="stop-color:#FEEC7F"/>
          <stop offset="0.1894" style="stop-color:#FEE97B"/>
          <stop offset="0.3937" style="stop-color:#FCDF6E"/>
          <stop offset="0.6052" style="stop-color:#FACF58"/>
          <stop offset="0.8201" style="stop-color:#F6B93A"/>
          <stop offset="1" style="stop-color:#F3A21B"/>
        </linearGradient>
        <path class="st3" d="M232.4,63.2c0-16-13.2-31.4-28.9-31.4c-12.1,0-25.8,1.5-52,34.8C117.6,109.4,100,88.5,99,87.1 c2.5,4.9,7.5,8.4,13.4,8.4h91.1C219.4,95.5,232.4,79.2,232.4,63.2z"/>
        <linearGradient id="SVGID_3_" gradientUnits="userSpaceOnUse" x1="5002.2505" y1="79.8847" x2="4919.2451" y2="79.8847" gradientTransform="matrix(-1 0 0 1 5066.3213 0)">
          <stop offset="0" style="stop-color:#FEEC7F"/>
          <stop offset="0.1105" style="stop-color:#FDE373"/>
          <stop offset="0.7142" style="stop-color:#F6B434"/>
          <stop offset="1" style="stop-color:#F3A21B"/>
        </linearGradient>
        <path class="st4" d="M112.5,95.5c-8.3,0-15.1-6.7-15.1-15s6.9-16.2,15-16.2c15.9,0,18.1,14.4,42.9,21.5 c16.1,4.6,48.1,9.7,48.1,9.7H112.5z"/>
        <linearGradient id="SVGID_4_" gradientUnits="userSpaceOnUse" x1="162.5619" y1="7.8836" x2="162.5619" y2="94.1739">
          <stop offset="0" style="stop-color:#FEEC7F"/>
          <stop offset="0.6144" style="stop-color:#F7BC3F"/>
          <stop offset="1" style="stop-color:#F3A21B"/>
        </linearGradient>
        <path class="st5" d="M203.4,95.5c-3.2-1.3-15.7-5.4-17.8-19c-2.1-13.8,6.2-21.2,3.6-37.1c-2.3-14-14-20.9-25.7-23.3 c-6-1.2-12.6-0.9-19.3,1.5c-18.8,6.8-25.1,28.2-21.6,42.9c2.9,12.1,14.9,24,43.7,29.1C190.9,93.9,192.9,94.3,203.4,95.5z"/>
        <linearGradient id="SVGID_5_" gradientUnits="userSpaceOnUse" x1="151.1762" y1="34.9019" x2="151.1762" y2="96.4809">
          <stop offset="0" style="stop-color:#F9C32E"/>
          <stop offset="0.5169" style="stop-color:#F19819"/>
          <stop offset="1" style="stop-color:#E96C04"/>
        </linearGradient>
        <path class="st6" d="M185.6,76.5c-2.1-13.8,6.2-21.2,3.6-37.1c-0.3-1.8-0.8-3.5-1.3-5.1c-9.1,3.6-20.5,12-36.4,32.2 C117.6,109.4,100,88.5,99,87.1c2.5,4.9,7.6,8.4,13.5,8.4h91C200.2,94.2,187.7,90.1,185.6,76.5z"/>
        <linearGradient id="SVGID_6_" gradientUnits="userSpaceOnUse" x1="107.0426" y1="82.4156" x2="183.95" y2="82.4156">
          <stop offset="0" style="stop-color:#F7B425"/>
          <stop offset="0.0625" style="stop-color:#F3A620"/>
          <stop offset="0.2131" style="stop-color:#EC8816"/>
          <stop offset="0.3736" style="stop-color:#E6720E"/>
          <stop offset="0.5466" style="stop-color:#E26208"/>
          <stop offset="0.7407" style="stop-color:#E05805"/>
          <stop offset="1" style="stop-color:#DF5504"/>
        </linearGradient>
        <path class="st7" d="M126.5,69.3c4.1,7.6,21.3,19.9,76.9,26.2h0C159.4,89.8,138.9,81.5,126.5,69.3z"/>
        <linearGradient id="SVGID_7_" gradientUnits="userSpaceOnUse" x1="4987.7847" y1="86.9008" x2="4987.7847" y2="98.323" gradientTransform="matrix(-1 0 0 1 5066.3213 0)">
          <stop offset="0" style="stop-color:#FEEC7F"/>
          <stop offset="0.6058" style="stop-color:#F7BD40"/>
          <stop offset="1" style="stop-color:#F3A21B"/>
        </linearGradient>
        <path class="st8" d="M70.9,95.5c-1.7,0-3-1.4-3-3.1c0-1.7,1.4-3.3,3-3.3c3.2,0,3.7,3.5,8.7,4.9c3.2,0.9,9.6,1.4,9.6,1.4H70.9z"/>
        <linearGradient id="SVGID_8_" gradientUnits="userSpaceOnUse" x1="101.5385" y1="69.0725" x2="101.5385" y2="91.6523">
          <stop offset="0" style="stop-color:#FEEC7F"/>
          <stop offset="0.2301" style="stop-color:#FEEA7C"/>
          <stop offset="0.4238" style="stop-color:#FCE271"/>
          <stop offset="0.6043" style="stop-color:#FBD560"/>
          <stop offset="0.7768" style="stop-color:#F8C347"/>
          <stop offset="0.9421" style="stop-color:#F4AC28"/>
          <stop offset="1" style="stop-color:#F3A21B"/>
        </linearGradient>
        <path class="st9" d="M112.5,95.5c-4.3,0-8.4-2-11.2-4.9c-7.9-3-9.2-7.7-15.1-7.7c-3.3,0-6,3.2-6,6.5s2.7,6.1,6,6.1h18.1 c3.8,0,18.6,0,18.6,0s-0.1,0-0.3,0H112.5z"/>
        <linearGradient id="SVGID_9_" gradientUnits="userSpaceOnUse" x1="206.0636" y1="34.1859" x2="206.0636" y2="77.6225">
          <stop offset="0" style="stop-color:#F9C32E"/>
          <stop offset="0.5169" style="stop-color:#F19819"/>
          <stop offset="1" style="stop-color:#E96C04"/>
        </linearGradient>
        <path class="st10" d="M219.3,37.3c-1-0.8-2.1-1.5-3.1-2.1c-1.1-0.6-2.3-1.2-3.7-1.6c-2.6-1-5.3-1.5-7.9-1.8c-0.4,0-0.7,0-1.1,0 c-4.7,0-9.7,0.2-15.6,2.5c0.6,1.6,1.1,3.3,1.3,5.1c1.8,11-1.7,18.1-3.3,25.9c7.7-6.2,22.5-6.4,30.8-5.9l0.9,0 c0.9,0,1.7-0.1,2.4-0.3C228.1,57,228.6,44.7,219.3,37.3z"/>
        <path class="st11" d="M186,65.2c-0.7,3.4-1,7.1-0.4,11.3c2.1,13.6,14.4,17.4,17.8,19h0.1c5.5,0,10.6-2,14.9-5.1 c-1-0.9-6.4-5.7-8-10.6c-5.1-15.5,6.5-20.1,7.2-20.4C212,59.3,193.7,59.1,186,65.2z"/>
        <linearGradient id="SVGID_10_" gradientUnits="userSpaceOnUse" x1="204.4573" y1="66.1336" x2="191.7408" y2="84.645">
          <stop offset="0" style="stop-color:#E66A09"/>
          <stop offset="1" style="stop-color:#E66A09"/>
        </linearGradient>
        <path class="st12" d="M185.6,76.5c1.8,11.8,11.7,17.2,17.8,19c-3.5-1.7-12.5-7.2-12.4-16.7c0.3-18.6,19.8-19.3,19.8-19.3h0 c-8.2,0-18.7,0.9-24.9,5.7C185.1,68.7,184.9,72.3,185.6,76.5z"/>
        <linearGradient id="SVGID_11_" gradientUnits="userSpaceOnUse" x1="4958.7383" y1="84.6813" x2="4958.7383" y2="95.6651" gradientTransform="matrix(-1 0 0 1 5066.3213 0)">
          <stop offset="0" style="stop-color:#F7B425"/>
          <stop offset="0.0625" style="stop-color:#F3A620"/>
          <stop offset="0.2131" style="stop-color:#EC8816"/>
          <stop offset="0.3736" style="stop-color:#E6720E"/>
          <stop offset="0.5466" style="stop-color:#E26208"/>
          <stop offset="0.7407" style="stop-color:#E05805"/>
          <stop offset="1" style="stop-color:#DF5504"/>
        </linearGradient>
        <path class="st13" d="M116.2,95.5c-3.5-0.1-12.5-1.2-17.3-8.4c2.6,5.3,7.8,8.4,13.7,8.4H116.2z"/>
        <linearGradient id="SVGID_12_" gradientUnits="userSpaceOnUse" x1="193.7996" y1="25.1692" x2="193.7996" y2="74.4655">
          <stop offset="0" style="stop-color:#F7B425"/>
          <stop offset="0.3526" style="stop-color:#EF961A"/>
          <stop offset="1" style="stop-color:#DF5504"/>
        </linearGradient>
        <path class="st14" d="M184.5,76.5c-2.1-13.8,6.9-21.2,4.3-37.1c-0.3-1.8-1-5.1-1-5.1c0.6,1.6,1.1,3.3,1.3,5.1 c2.6,15.9-5.7,23.3-3.6,37.1c2.1,13.6,14.6,17.7,17.8,19C203.4,95.5,186.8,91.5,184.5,76.5z"/>
        <path class="st15" d="M110.8,95.5H88.4l-17.6,0c-1.2,0-1.9-0.8-1.9-0.8C70,94.8,110.8,95.5,110.8,95.5z"/>
        <path class="st16" d="M112.3,95.5H88.1c-2.8,0-4.2-0.5-4.2-0.5C95.7,95.2,112.3,95.5,112.3,95.5z"/>
        <path class="st16" d="M186,65.2c7.7-6.2,23.1-6.4,31.7-5.8c0,0-12-0.3-20.3,1.5C189,62.8,186,65.2,186,65.2z"/>
      </g>
    </g>
  </g>
</svg>