<?xml version="1.0" encoding="utf-8"?>
<svg version="1.1" x="0px" y="0px" viewBox="0 0 100 100" enable-background="new 0 0 100 100" xmlns="http://www.w3.org/2000/svg">
  <path d="M 84.9 19.3 C 84.2 19.3 83.6 19.9 83.4 20 L 77.6 25.6 C 65.9 13.7 52.3 10.3 37.4 15.7 C 25.6 20 17.9 28.7 14.6 41.6 C 14.3 42.6 14.6 43.2 14.9 43.6 C 15.6 44.5 16.8 44.6 17 44.6 L 26.2 44.6 C 26.4 44.6 28.1 44.5 29 42.4 C 32.6 33.3 39.2 28.3 48.6 27.5 C 56 26.9 62.4 29.7 67.6 35.8 L 61.5 42 C 61 42.5 60.8 43.1 61 43.6 C 61.3 44.4 62.4 44.5 62.6 44.6 L 84 44.6 L 84.1 44.6 C 85 44.4 85.9 43.8 85.9 42.6 L 85.9 20.9 C 86 19.4 85.1 19.3 84.9 19.3 Z M 83.5 54.9 L 74.2 54.9 C 74 54.9 72.3 55 71.4 57.1 C 67.8 66.2 61.2 71.2 51.8 72 C 44.4 72.6 38 69.8 32.8 63.7 L 38.9 57.5 C 39.4 57 39.6 56.4 39.4 55.9 C 39.1 55.1 38 55 37.8 54.9 L 16.4 54.9 L 16.3 54.9 C 15.4 55.1 14.5 55.7 14.5 56.9 L 14.5 78.6 C 14.5 80.1 15.4 80.2 15.6 80.2 C 16.3 80.2 16.9 79.6 17.1 79.5 L 22.9 73.9 C 31 82.1 40 86.3 49.7 86.3 C 54 86.3 58.5 85.5 63.1 83.8 C 74.9 79.5 82.6 70.8 85.9 57.9 C 86.2 56.9 85.9 56.3 85.6 55.9 C 84.9 55 83.7 54.9 83.5 54.9 Z" style="fill: rgb(12, 165, 12); stroke: rgb(12, 165, 12); paint-order: stroke;"/>
</svg>